<svg xmlns="http://www.w3.org/2000/svg" viewBox="0 0 180 180" xml:space="preserve"><path fill="#333" d="M146.179 83.943h-3.884a.385.385 0 1 1 0-.768h3.884a.384.384 0 1 1 0 .768z"/><path fill="#333" d="M144.153 85.549a.385.385 0 0 1-.384-.385v-3.338a.384.384 0 0 1 .768 0v3.338a.385.385 0 0 1-.384.385z"/><g><path fill="#FFDB76" d="M154.623 90c0 35.69-28.934 64.623-64.623 64.623-35.688 0-64.622-28.932-64.622-64.623 0-35.689 28.934-64.622 64.622-64.622 35.689 0 64.623 28.932 64.623 64.622z"/><path fill="#333" d="M57.104 46.514h-9.818a.385.385 0 1 1 0-.768h9.818a.383.383 0 0 1 0 .768zM60.516 44.333h-1.585a.384.384 0 1 1 0-.768h1.585a.384.384 0 0 1 0 .768zM62.405 49.361H60.82a.385.385 0 0 1 0-.77h1.585a.386.386 0 0 1 0 .77zM57.104 44.333h-5.979a.385.385 0 0 1 0-.768h5.979a.383.383 0 0 1 0 .768zM58.412 61.128h-1.586a.383.383 0 1 1 0-.768h1.586a.384.384 0 0 1 0 .768zM54.999 61.128H49.02a.384.384 0 0 1 0-.768h5.979c.212 0 .385.172.385.385a.385.385 0 0 1-.385.383zM66.013 42.116h-7.218a.384.384 0 0 1-.383-.385c0-.212.171-.385.383-.385h7.218a.385.385 0 0 1 0 .77zM136.666 55.808h-10.17a.384.384 0 1 1 0-.768h10.17a.384.384 0 1 1 0 .768zM124.604 58.579h-1.643a.383.383 0 1 1 0-.768h1.643a.384.384 0 0 1 0 .768zM122.646 52.196h-1.643a.385.385 0 0 1 0-.77h1.643a.385.385 0 0 1 0 .77zM132.69 58.579h-6.193a.384.384 0 1 1 0-.768h6.193a.383.383 0 0 1 0 .768zM124.743 61.394h-7.477a.385.385 0 1 1 0-.768h7.477a.383.383 0 0 1 0 .768z"/><g><path fill="#333" d="M151.188 93.259h-6.951a.385.385 0 0 1 0-.769h6.951a.384.384 0 0 1 0 .769zM142.944 96.028h-1.123a.383.383 0 1 1 0-.768h1.123a.384.384 0 1 1 0 .768zM141.606 89.644h-1.122a.385.385 0 1 1 0-.768h1.122a.384.384 0 0 1 0 .768zM148.469 96.028h-4.232a.384.384 0 0 1 0-.768h4.232a.385.385 0 1 1 0 .768zM143.039 98.844h-5.11a.383.383 0 1 1 0-.768h5.11a.384.384 0 0 1 0 .768z"/></g><g><path fill="#333" d="M54.29 53.503h-3.269a.384.384 0 0 1 0-.768h3.269a.383.383 0 1 1 0 .768z"/><path fill="#333" d="M52.583 54.952a.385.385 0 0 1-.384-.385v-3.013a.384.384 0 1 1 .769 0v3.013a.386.386 0 0 1-.385.385z"/></g><g><path fill="#333" d="M87.998 145.032H77.827a.383.383 0 0 1 0-.768h10.171a.384.384 0 1 1 0 .768zM91.534 140.382h-1.643a.383.383 0 1 1 0-.768h1.643c.212 0 .383.17.383.383a.385.385 0 0 1-.383.385zM93.491 151.099h-1.643a.383.383 0 1 1 0-.768h1.643a.385.385 0 0 1 0 .768zM87.998 140.382h-6.192a.386.386 0 0 1-.385-.385c0-.213.172-.383.385-.383h6.192c.213 0 .385.17.385.383a.387.387 0 0 1-.385.385zM97.229 135.654h-7.477a.385.385 0 1 1 0-.768h7.477a.383.383 0 0 1 0 .768z"/><g><path fill="#333" d="M102.004 145.361H98.12a.385.385 0 0 1 0-.77h3.884a.386.386 0 0 1 0 .77z"/><path fill="#333" d="M99.978 147.47a.382.382 0 0 1-.384-.383v-4.391a.384.384 0 1 1 .768 0v4.391a.383.383 0 0 1-.384.383z"/></g></g><g><path fill="#333" d="M128.992 46.902h-3.884a.383.383 0 1 1 0-.768h3.884a.384.384 0 1 1 0 .768z"/><path fill="#333" d="M126.966 49.012a.384.384 0 0 1-.385-.383v-4.392a.385.385 0 0 1 .768 0v4.392a.382.382 0 0 1-.383.383z"/></g><g><path fill="#333" d="M36.786 126.585v2.639c0 1.459 1.155 2.643 2.58 2.643h101.27c1.424 0 2.58-1.184 2.58-2.643v-2.639H36.786z"/><path fill="#686868" d="M138.291 126.585V70.713c0-3.108-2.461-5.627-5.498-5.627H47.207c-3.036 0-5.498 2.519-5.498 5.627v55.872h96.582z"/><path fill="#CCCBC9" d="M46.505 70.419h86.989v51.845H46.505z"/><path fill-rule="evenodd" clip-rule="evenodd" fill="#FFDB76" d="M67.814 88.174h43.087V101H67.814z"/><path fill-rule="evenodd" clip-rule="evenodd" fill="#FFDB76" d="M67.814 94.587h43.087V101H67.814z"/><path fill-rule="evenodd" clip-rule="evenodd" fill="#333" d="M103.65 88.174h1.609V101h-1.609zM95.976 88.174h1.609V101h-1.609zM70.754 88.174h1.609V101h-1.609zM100.484 92.429a1.235 1.235 0 1 1 0-2.47 1.235 1.235 0 0 1 0 2.47z"/><path fill-rule="evenodd" clip-rule="evenodd" fill="#333" d="M100.484 95.821a1.234 1.234 0 1 1-.002-2.468 1.234 1.234 0 0 1 .002 2.468z" opacity=".6"/><path fill-rule="evenodd" clip-rule="evenodd" fill="#333" d="M100.484 99.213a1.234 1.234 0 1 1-.002-2.468 1.234 1.234 0 0 1 .002 2.468z" opacity=".2"/><g><path fill-rule="evenodd" clip-rule="evenodd" fill="#ADEBF6" d="m69.984 122.118.02-9.292 47.507.105-.02 9.292z"/><path fill-rule="evenodd" clip-rule="evenodd" fill="#ADEBF6" d="m117.491 122.225.008-3.786-47.506-.274-.009 3.953z"/><path fill-rule="evenodd" clip-rule="evenodd" fill="#FFDB76" d="m110.9 122.21.02-9.293 1.389.003-.02 9.292zM106.1 122.192l.021-9.293 1.387.003-.02 9.293z"/><path fill-rule="evenodd" clip-rule="evenodd" fill="#333" d="m100.291 117.556 1.201-1.197 1.198 1.201-1.201 1.198zM97.423 117.502l1.202-1.197 1.197 1.202-1.202 1.196z"/></g><g><path fill-rule="evenodd" clip-rule="evenodd" fill="#FF916E" d="m64.35 88.133.01-9.292 47.51.057-.011 9.292z"/><path fill-rule="evenodd" clip-rule="evenodd" fill="#FF916E" d="m111.855 88.187.003-3.786-47.507-.225-.005 3.953z"/><path fill-rule="evenodd" clip-rule="evenodd" fill="#ADEBF6" d="m105.27 88.182.01-9.292 1.388.002-.01 9.292zM100.467 88.17l.011-9.292 1.387.002-.011 9.292z"/><path fill-rule="evenodd" clip-rule="evenodd" fill="#333" d="m94.648 83.535 1.202-1.197 1.197 1.203-1.201 1.196zM91.78 83.496l1.2-1.198 1.198 1.2-1.2 1.198z"/></g><g><path fill-rule="evenodd" clip-rule="evenodd" fill="#333" d="M103.639 101.056v11.839H69.555a5.93 5.93 0 0 1-5.66-5.924 5.924 5.924 0 0 1 5.526-5.915h34.218z"/><path fill-rule="evenodd" clip-rule="evenodd" fill="#FFF" d="M103.639 101.913v10.125H70.343c-2.927 0-5.299-2.269-5.299-5.066 0-2.704 2.214-4.913 5.004-5.059h33.591z"/><path fill-rule="evenodd" clip-rule="evenodd" fill="#B2B2B2" d="m93.372 112.038.023-6.788-.875.005v6.783z"/><path fill-rule="evenodd" clip-rule="evenodd" fill="#FF916E" d="m88.121 105.277 4.421-.027.075 11.852-2.228-1.876-2.193 1.905z"/><path fill-rule="evenodd" clip-rule="evenodd" fill="#FF916E" d="m88.166 112.188 4.422-.029.014 2.078-4.422.03z" opacity=".5"/></g><g><path fill="#FFF" d="M91.418 67.778c0 .802-.635 1.452-1.419 1.452s-1.418-.65-1.418-1.452c0-.802.634-1.452 1.418-1.452.785 0 1.419.65 1.419 1.452z"/></g></g><g><path fill="#333" d="M103.184 65.096V49.408l-13.829 6.258-13.831-6.258v15.688h27.66z"/><path fill="#333" d="M103.184 49.409v3.4l-13.832 6.254-13.828-6.258v-3.396l13.831 6.259 13.829-6.259z"/><path fill="#757575" d="M89.354 54.218v1.454l-23.901-9.574v-1.322l.01-.005 23.891 9.447z"/><path fill="#333" d="m89.354 54.219-23.901-9.452 24.078-9.287 23.278 9.296zM111.101 45.721h1.396V60.4h-1.396z"/><path fill="#333" d="M114.012 60.925a2.21 2.21 0 0 0-2.213-2.212 2.214 2.214 0 0 0 0 4.427 2.214 2.214 0 0 0 2.213-2.215z"/><path fill="#333" d="M113.271 62.034h-2.794c-.468 1.249-1.502 4.684-.914 9.391 0 .282 1.033.511 2.308.511 1.274 0 2.308-.229 2.308-.511.587-4.707-.442-8.142-.908-9.391z"/><g><path fill="#B2B2B2" d="m89.354 54.218.001 1.454 23.454-9.574v-1.322l-.01-.005-23.444 9.447z"/></g></g><g><path fill="#333" d="M36.78 93.018h-6.034a.384.384 0 0 1 0-.769h6.034a.384.384 0 0 1 0 .769zM35.861 88.589h-.975a.385.385 0 1 1 0-.768h.975a.385.385 0 0 1 0 .768zM37.021 97.722h-.975a.385.385 0 1 1 0-.768h.975a.385.385 0 1 1 0 .768zM33.762 88.589h-3.674a.384.384 0 1 1 0-.768h3.674a.385.385 0 1 1 0 .768zM39.24 84.559h-4.436a.385.385 0 1 1 0-.769h4.436a.384.384 0 0 1 0 .769z"/></g></g></svg>