<?xml version="1.0" encoding="iso-8859-1"?>
<!-- Uploaded to: SVG Repo, www.svgrepo.com, Generator: SVG Repo Mixer Tools -->
<svg height="800px" width="800px" version="1.1" id="Layer_1" xmlns="http://www.w3.org/2000/svg" xmlns:xlink="http://www.w3.org/1999/xlink" 
	 viewBox="0 0 512.001 512.001" xml:space="preserve">
<path style="fill:#FF4F19;" d="M250.695,512.001c-138.203,0-250.64-112.436-250.64-250.639s112.437-250.64,250.64-250.64
	s250.64,112.437,250.64,250.64S388.899,512.001,250.695,512.001z"/>
<path style="fill:#FC0023;" d="M501.334,261.36c0-136.43-109.572-247.738-245.334-250.572v501.145
	C391.763,509.098,501.334,397.79,501.334,261.36z"/>
<path style="fill:#FFDB2D;" d="M251.08,407.126c-80.526,0-146.04-65.513-146.04-146.04s65.514-146.039,146.04-146.039
	s146.039,65.513,146.039,146.04S331.606,407.126,251.08,407.126z M251.08,150.768c-60.83,0-110.32,49.489-110.32,110.319
	s49.489,110.319,110.32,110.319c60.83,0,110.318-49.488,110.318-110.319S311.909,150.768,251.08,150.768z"/>
<path style="fill:#FF9900;" d="M397.12,261.086c0-78.879-62.862-143.343-141.119-145.947v35.744
	c58.554,2.583,105.398,51.023,105.398,110.204s-46.844,107.62-105.398,110.204v35.744
	C334.256,404.429,397.12,339.965,397.12,261.086z"/>
<path style="fill:#A7A9AC;" d="M511.333,70.624c-2.554-9.528-12.351-15.181-21.874-12.63l-48.504,12.996l12.998-48.503
	c2.553-9.528-3.101-19.321-12.628-21.874c-9.524-2.552-19.322,3.101-21.875,12.628l-19.765,73.762L238.34,248.347
	c-6.975,6.974-6.975,18.283,0,25.258c6.973,6.974,18.282,6.976,25.258,0l161.343-161.343l73.761-19.764
	C508.23,89.945,513.884,80.152,511.333,70.624z"/>
<path style="fill:#808285;" d="M511.333,70.623c-2.554-9.528-12.351-15.181-21.874-12.63l-48.504,12.996l12.998-48.503
	c2.553-9.528-3.101-19.321-12.628-21.874c-9.524-2.552-19.322,3.101-21.875,12.628l-19.765,73.762L256.001,230.687v47.427
	c2.781-0.813,5.405-2.315,7.598-4.509l161.343-161.343l73.761-19.764C508.23,89.944,513.884,80.15,511.333,70.623z"/>
</svg>