<svg xmlns="http://www.w3.org/2000/svg" width="512" height="512" xml:space="preserve"><circle fill="#45546D" cx="256" cy="256" r="256"/><path opacity=".1" d="m271.927 83.899-52.26 219.768L124 387l121.539 124.77c3.471.14 6.955.23 10.461.23 121.596 0 223.389-84.778 249.502-198.449L271.927 83.899z"/><path fill="#44BACA" d="M287.119 238.691s19.988 9.287 27.265 22.258c19.413 34.601 36.352 75.231 57.833 86.799 21.48 11.564 13.614 30.208 13.614 30.208H259.854l27.265-139.265z"/><path fill="#E6E7E8" d="M388.257 340.135c-.549-6.58-3.162-11.566-6.304-11.566-3.144 0-5.756 4.986-6.305 11.566h-.106v41.042h12.822v-41.042h-.107z"/><path fill="#44BACA" d="M224.881 238.691s-19.989 9.287-27.264 22.258c-19.415 34.601-36.353 75.231-57.833 86.799-21.482 11.564-13.616 30.208-13.616 30.208h125.976l-27.263-139.265z"/><path fill="#E6E7E8" d="M123.743 340.135c.549-6.58 3.162-11.566 6.305-11.566 3.142 0 5.755 4.986 6.304 11.566h.108v41.042h-12.825v-41.042h.108zM305.573 188.478c0-41.373-22.194-113.192-49.573-113.192s-49.573 71.819-49.573 113.192c0 .414.005.827.011 1.24-.003.138-.011.274-.011.412v160.837c0 14.905 12.083 26.989 26.99 26.989h45.167c14.904 0 26.989-12.084 26.989-26.989V190.13c0-.138-.009-.274-.011-.412.005-.413.011-.826.011-1.24z"/><path fill="#44BACA" d="M218.519 122.987h74.963C284.393 96.76 270.971 75.285 256 75.285s-28.392 21.475-37.481 47.702z"/><circle fill="#44BACA" cx="256" cy="210.562" r="25.611"/><path fill="#999B9E" d="M206.427 342.337h99.146v12.534h-99.146z"/><path fill="#45546D" d="M214.877 134.536h82.245c-.632-2.216-1.3-4.416-1.993-6.592h-78.257a229.116 229.116 0 0 0-1.995 6.592z"/><path fill="#44BACA" d="M123.636 381.177h12.825v6.419h-12.825zM375.542 381.177h12.822v6.419h-12.822z"/><path fill="#273245" d="M274.198 375.021h-35.296c-14.473 0-26.207 5.088-26.207 11.364v1.622h-.001l8.721 17.859H291.685l8.72-17.859v-1.622c0-6.276-11.732-11.364-26.207-11.364z"/><path fill="#45546D" d="M206.427 354.871h99.146v23.085h-99.146z"/></svg>