<svg xmlns="http://www.w3.org/2000/svg" xml:space="preserve" width="2048" height="2048" style="shape-rendering:geometricPrecision;text-rendering:geometricPrecision;image-rendering:optimizeQuality;fill-rule:evenodd;clip-rule:evenodd"><defs><clipPath id="id0"><path d="M1024 0c565.539 0 1024 458.461 1024 1024s-458.461 1024-1024 1024S0 1589.539 0 1024 458.461 0 1024 0z"/></clipPath><style>.fil5{fill:#81d4fa}.fil1{fill:#90a4ae}.fil8{fill:#bdc3c7}.fil7{fill:#c0392b}.fil9{fill:#e74c3c}.fil10{fill:#ecf0f1}.fil6{fill:#039be5;fill-rule:nonzero}</style></defs><g id="Layer_x0020_1"><path d="M1024 0c565.539 0 1024 458.461 1024 1024s-458.461 1024-1024 1024S0 1589.539 0 1024 458.461 0 1024 0z" style="fill:#b0bec5"/><g style="clip-path:url(#id0)"><g id="_341207560"><path id="_3329211841" class="fil1" d="M1494.27 488.454 2630.15 1624.34l1.51 1.9 1.32 2.04 1.1 2.16.89 2.27.65 2.37.39 2.46.14 2.53L1500.27 504.185l-.14-2.529-.4-2.456-.64-2.369-.89-2.272-1.1-2.162-1.32-2.04z"/><path id="_332922216" class="fil1" d="M1500.27 504.185 2636.15 1640.07l-.03 1.21-.09 1.19-.15 1.17-.21 1.16-.27 1.14-.32 1.12-.37 1.1-.43 1.08-.47 1.05-.53 1.02-.57 1-.62.97-.67.94-.71.91-.75.88-.79.84L1493.29 520.97l.79-.844.75-.876.71-.911.67-.94.62-.97.57-.999.53-1.025.47-1.051.43-1.075.37-1.099.32-1.119.27-1.14.21-1.159.15-1.176.09-1.193z"/><path id="_332922336" class="fil1" d="m1500.27 520.97 1135.88 1135.88 83.73 251.13L1584 772.1z"/><path id="_332922264" class="fil1" d="m1584 772.1 1135.88 1135.88h-1.18L1582.82 772.1z"/><path id="_332921616" class="fil1" d="M1582.82 772.1 2718.7 1907.98v119.71l-.08 3.18-.24 3.15-.4 3.1-.55 3.06-.69 3-.84 2.95-.99 2.88-1.11 2.82-1.25 2.75-1.38 2.68-1.5 2.61-1.62 2.52-1.74 2.44-1.85 2.35-1.96 2.26-2.06 2.17-2.17 2.06-2.26 1.96-2.35 1.85-2.44 1.74-2.52 1.62-2.61 1.5-2.68 1.38-2.75 1.25-2.82 1.11-2.88.99-2.95.84-3 .69-3.06.55-3.1.4-3.15.24-3.18.08h-1.02l-.25-.01-.26-.01h-.25l-.25-.01L1518.61 953.958l.25.008.25.006.25.006.26.005.25.004.26.002.25.002h.26l3.18-.081 3.15-.241 3.1-.398 3.06-.549 3-.697 2.94-.841 2.89-.982 2.82-1.118 2.75-1.25 2.68-1.377 2.61-1.502 2.52-1.622 2.44-1.739 2.35-1.849 2.26-1.958 2.16-2.064 2.07-2.162 1.96-2.26 1.85-2.351 1.73-2.439 1.63-2.524 1.5-2.605 1.38-2.68 1.24-2.753 1.12-2.82.98-2.886.85-2.945.69-3.003.55-3.054.4-3.103.24-3.148.08-3.187z"/><path id="_332922192" class="fil1" d="M1518.61 953.958 2654.49 2089.84v614.59L1518.61 1568.55z"/><path id="_332922096" class="fil1" d="M529.393 953.909 1665.27 2089.79l-.39.02-.4.02-.4.01-.4.01-.41.01-.4.01h-.8l-3.19-.08-3.15-.24-3.1-.4-3.06-.55-3-.69-2.94-.84-2.89-.99-2.82-1.11-2.75-1.25-2.68-1.38-2.61-1.5-2.52-1.62-2.44-1.74-2.35-1.85-2.26-1.96L484.43 937.787l2.259 1.958 2.35 1.849 2.441 1.739 2.524 1.622 2.604 1.502 2.68 1.377 2.752 1.25 2.821 1.118 2.886.982 2.946.841 3.001.697 3.055.549 3.103.398 3.146.241 3.188.081.403-.001.403-.003.401-.008.402-.008.4-.012.4-.014.4-.016z"/><path id="_332921664" class="fil1" d="M899.555 1568.55 2035.44 2704.43H1734.6L598.72 1568.55z"/><path id="_332921928" class="fil1" d="M598.72 1568.55 1734.6 2704.43h-69.33L529.393 1568.55z"/><path id="_332921760" class="fil1" d="m1518.61 1568.55 1135.88 1135.88h-619.05L899.555 1568.55z"/><path id="_341207752" class="fil1" d="M574.004 479.455h899.988c14.511 0 26.276 11.072 26.276 24.73 0 6.48-2.647 12.377-6.98 16.786h6.98l83.733 251.13h-1.179v119.702c0 34.203-27.985 62.188-62.187 62.188-.68 0-1.356-.01-2.03-.033v614.587H529.395V953.908a61.447 61.447 0 0 1-3.207.083c-34.202 0-62.187-27.985-62.187-62.189V772.1l83.733-251.13h6.978c-4.333-4.409-6.98-10.306-6.98-16.785 0-13.659 11.764-24.73 26.274-24.73z"/></g></g><path d="M1024 0c565.539 0 1024 458.461 1024 1024s-458.461 1024-1024 1024S0 1589.539 0 1024 458.461 0 1024 0z" style="fill:none"/><path style="fill:#6d4c41" d="M1518.61 875.872v692.678H529.393V875.872z"/><path d="M574.006 479.455c-14.511 0-26.275 11.073-26.275 24.73 0 13.658 11.764 24.731 26.275 24.731h899.987c14.511 0 26.275-11.073 26.275-24.731 0-13.657-11.764-24.73-26.275-24.73H574.006z" style="fill:#c0392b;fill-rule:nonzero"/><path class="fil5" d="M598.72 1037.47h300.835v531.08H598.72zM979.671 1037.47h431.539v397.43H979.671z"/><path class="fil6" d="M1356.17 1176.24c4.828-4.827 4.828-12.658 0-17.485-4.827-4.828-12.658-4.828-17.485 0l-210.207 210.207c-4.827 4.827-4.827 12.658 0 17.485 4.828 4.827 12.658 4.827 17.485 0l210.207-210.207zM1361.77 1271.62c4.827-4.828 4.827-12.658 0-17.485-4.828-4.828-12.658-4.828-17.485 0l-111.287 111.287c-4.828 4.827-4.828 12.657 0 17.485 4.827 4.827 12.657 4.827 17.485 0l111.287-111.287zM863.781 1219.24v80.75H839.05v-80.75z"/><path class="fil6" d="M851.415 1286.46a23.18 23.18 0 0 1 16.441 6.81 23.18 23.18 0 0 1 6.811 16.441c0 6.42-2.603 12.232-6.811 16.44a23.18 23.18 0 0 1-16.441 6.811 23.177 23.177 0 0 1-16.44-6.811 23.177 23.177 0 0 1-6.811-16.44 23.18 23.18 0 0 1 6.811-16.44 23.176 23.176 0 0 1 16.44-6.811zM851.415 1195.21a23.18 23.18 0 0 1 16.441 6.811 23.177 23.177 0 0 1 6.811 16.44c0 6.42-2.603 12.233-6.811 16.441a23.184 23.184 0 0 1-16.441 6.81 23.181 23.181 0 0 1-16.44-6.81 23.178 23.178 0 0 1-6.811-16.44c0-6.42 2.603-12.232 6.811-16.44a23.177 23.177 0 0 1 16.44-6.812z"/><path class="fil7" d="M463.999 772.1h124.375v119.702c0 34.204-27.984 62.189-62.187 62.189-34.203 0-62.188-27.986-62.188-62.189V772.1z"/><path class="fil8" d="M712.749 772.1H588.374v119.702c0 34.204 27.985 62.189 62.189 62.189 34.202 0 62.186-27.986 62.186-62.189V772.1z"/><path class="fil7" d="M712.749 772.1h124.376v119.702c0 34.204-27.985 62.189-62.189 62.189-34.202 0-62.187-27.986-62.187-62.189V772.1z"/><path class="fil8" d="M961.5 772.1H837.125v119.702c0 34.204 27.984 62.189 62.187 62.189 34.203 0 62.188-27.986 62.188-62.189V772.1z"/><path class="fil7" d="M961.5 772.1h124.375v119.702c0 34.204-27.985 62.189-62.189 62.189-34.202 0-62.186-27.986-62.186-62.189V772.1z"/><path class="fil8" d="M1210.25 772.1h-124.375v119.702c0 34.204 27.984 62.189 62.187 62.189 34.203 0 62.188-27.986 62.188-62.189V772.1z"/><path class="fil7" d="M1210.25 772.1h124.375v119.702c0 34.204-27.985 62.189-62.189 62.189-34.202 0-62.186-27.986-62.186-62.189V772.1z"/><path class="fil8" d="M1459 772.1h-124.375v119.702c0 34.204 27.984 62.189 62.187 62.189 34.203 0 62.188-27.986 62.188-62.189V772.1z"/><path class="fil9" d="M547.732 520.97h124.375L588.374 772.1H463.999z"/><path class="fil10" d="M672.657 520.97h124.375L713.3 772.1H588.924z"/><path class="fil9" d="M796.973 520.97h83.568L837.616 772.1H713.241z"/><path class="fil10" d="M1376.44 520.97h-124.37l83.73 251.13h124.38z"/><path class="fil9" d="M1251.52 520.97h-124.38l83.74 251.13h124.37z"/><path class="fil10" d="M1127.2 520.97h-83.18l42.54 251.13h124.38z"/><path class="fil9" d="M1044.83 520.97h-83.179l.604 251.13h124.375z"/><path class="fil10" d="M878.468 520.97h83.183l-.605 251.13H836.671z"/><path class="fil7" d="M1582.82 772.1h-124.375v119.702c0 34.204 27.984 62.189 62.187 62.189 34.203 0 62.188-27.986 62.188-62.189V772.1z"/><path class="fil9" d="M1500.27 520.97h-124.38l83.74 251.13H1584z"/></g></svg>